<mxfile host="app.diagrams.net" modified="2023-10-31T07:37:46.283Z" agent="Mozilla/5.0 (Windows NT 10.0; Win64; x64) AppleWebKit/537.36 (KHTML, like Gecko) Chrome/118.0.0.0 Safari/537.36" etag="0vY2-ePx_IEZEjGvGTML" version="22.0.8" type="github">
  <diagram name="第 1 页" id="1PvbDoiYro2HMufy2jLL">
    <mxGraphModel dx="1050" dy="574" grid="1" gridSize="10" guides="1" tooltips="1" connect="1" arrows="1" fold="1" page="1" pageScale="1" pageWidth="827" pageHeight="1169" math="0" shadow="0">
      <root>
        <mxCell id="0" />
        <mxCell id="1" parent="0" />
        <mxCell id="rJkmEoZ5hTyGSh3brtiG-1" value="大雁" style="swimlane;fontStyle=1;align=center;verticalAlign=top;childLayout=stackLayout;horizontal=1;startSize=26;horizontalStack=0;resizeParent=1;resizeParentMax=0;resizeLast=0;collapsible=1;marginBottom=0;whiteSpace=wrap;html=1;" vertex="1" parent="1">
          <mxGeometry x="369" y="410" width="90" height="100" as="geometry" />
        </mxCell>
        <mxCell id="rJkmEoZ5hTyGSh3brtiG-2" value="- attribute" style="text;strokeColor=none;fillColor=none;align=left;verticalAlign=top;spacingLeft=4;spacingRight=4;overflow=hidden;rotatable=0;points=[[0,0.5],[1,0.5]];portConstraint=eastwest;whiteSpace=wrap;html=1;" vertex="1" parent="rJkmEoZ5hTyGSh3brtiG-1">
          <mxGeometry y="26" width="90" height="26" as="geometry" />
        </mxCell>
        <mxCell id="rJkmEoZ5hTyGSh3brtiG-3" value="" style="line;strokeWidth=1;fillColor=none;align=left;verticalAlign=middle;spacingTop=-1;spacingLeft=3;spacingRight=3;rotatable=0;labelPosition=right;points=[];portConstraint=eastwest;strokeColor=inherit;" vertex="1" parent="rJkmEoZ5hTyGSh3brtiG-1">
          <mxGeometry y="52" width="90" height="8" as="geometry" />
        </mxCell>
        <mxCell id="rJkmEoZ5hTyGSh3brtiG-4" value="+ 下蛋()&lt;span style=&quot;white-space: pre;&quot;&gt;&#x9;&lt;/span&gt;&lt;br&gt;+ 飛()&lt;br&gt;" style="text;strokeColor=none;fillColor=none;align=left;verticalAlign=top;spacingLeft=4;spacingRight=4;overflow=hidden;rotatable=0;points=[[0,0.5],[1,0.5]];portConstraint=eastwest;whiteSpace=wrap;html=1;" vertex="1" parent="rJkmEoZ5hTyGSh3brtiG-1">
          <mxGeometry y="60" width="90" height="40" as="geometry" />
        </mxCell>
        <mxCell id="rJkmEoZ5hTyGSh3brtiG-5" value="" style="endArrow=none;dashed=1;html=1;rounded=0;startArrow=block;startFill=0;" edge="1" parent="1" source="rJkmEoZ5hTyGSh3brtiG-6" target="rJkmEoZ5hTyGSh3brtiG-1">
          <mxGeometry width="50" height="50" relative="1" as="geometry">
            <mxPoint x="265.2" y="556" as="sourcePoint" />
            <mxPoint x="179.99999999999994" y="480" as="targetPoint" />
            <Array as="points">
              <mxPoint x="410" y="540" />
            </Array>
          </mxGeometry>
        </mxCell>
        <mxCell id="rJkmEoZ5hTyGSh3brtiG-6" value="&lt;p style=&quot;margin:0px;margin-top:4px;text-align:center;&quot;&gt;&lt;b&gt;&amp;lt;&amp;lt;Interface&amp;gt;&amp;gt;&lt;/b&gt;&lt;/p&gt;&lt;p style=&quot;margin:0px;margin-top:4px;text-align:center;&quot;&gt;&lt;b&gt;飛翔&lt;/b&gt;&lt;/p&gt;&lt;hr size=&quot;1&quot;&gt;&lt;div style=&quot;height:2px;&quot;&gt;+ 飛()&lt;/div&gt;" style="verticalAlign=top;align=left;overflow=fill;fontSize=12;fontFamily=Helvetica;html=1;whiteSpace=wrap;" vertex="1" parent="1">
          <mxGeometry x="369" y="630" width="80" height="80" as="geometry" />
        </mxCell>
      </root>
    </mxGraphModel>
  </diagram>
</mxfile>
